<?xml version="1.0" encoding="UTF-8" standalone="no"?>
<!-- Created with Inkscape (http://www.inkscape.org/) -->

<svg
   width="169.31189mm"
   height="269.09756mm"
   viewBox="0 0 169.31189 269.09756"
   version="1.1"
   id="svg2899"
   xmlns:inkscape="http://www.inkscape.org/namespaces/inkscape"
   xmlns:sodipodi="http://sodipodi.sourceforge.net/DTD/sodipodi-0.dtd"
   xmlns="http://www.w3.org/2000/svg"
   xmlns:svg="http://www.w3.org/2000/svg">
  <sodipodi:namedview
     id="namedview2901"
     pagecolor="#505050"
     bordercolor="#ffffff"
     borderopacity="1"
     inkscape:showpageshadow="0"
     inkscape:pageopacity="0"
     inkscape:pagecheckerboard="1"
     inkscape:deskcolor="#505050"
     inkscape:document-units="mm"
     showgrid="false" />
  <defs
     id="defs2896" />
  <g
     inkscape:label="Layer 1"
     inkscape:groupmode="layer"
     id="layer1"
     transform="translate(-26.71445,-16.154299)">
    <g
       id="g188"
       transform="matrix(0,0.8345855,-0.7773533,0,259.87947,-382.59204)">
			<path
   fill="#ab9371"
   d="M 518.613,259.428 H 759.377 V 122.661 H 518.613 Z m 1.683,-135.084 h 237.397 v 133.4 H 520.296 Z"
   id="path180" />

			<path
   fill="#ab9371"
   d="m 798.22,264.928 -0.065,-0.035 c -1.751,-0.919 -23.255,-0.87 -29.804,-0.833 l -2.661,-0.007 V 118.037 l 2.906,-0.008 c 6.549,0.037 28.054,0.086 29.805,-0.833 l 0.065,-0.035 c 1.465,-0.796 1.85,-2.263 1.721,-3.37 -0.091,-0.779 -0.436,-1.503 -0.972,-2.039 -0.404,-0.404 -0.901,-0.688 -1.482,-0.846 l -0.068,-0.018 c -1.915,-0.493 -22.832,4.5 -29.198,6.042 l -2.778,0.673 v -0.132 l 2.671,-0.911 c 6.199,-2.113 26.53,-9.122 27.882,-10.565 l 0.05,-0.054 c 1.123,-1.232 1.005,-2.744 0.52,-3.748 -0.17,-0.352 -0.407,-0.684 -0.685,-0.962 -0.685,-0.686 -1.601,-1.026 -2.581,-0.959 l -0.068,0.005 c -1.97,0.163 -20.093,11.741 -25.6,15.286 l -2.073,1.335 1.964,-1.536 c 5.159,-4.035 22.053,-17.34 22.855,-19.147 l 0.031,-0.069 c 0.655,-1.532 0.046,-2.92 -0.743,-3.709 -0.788,-0.788 -2.177,-1.397 -3.714,-0.74 l -0.06,0.026 c -1.811,0.804 -15.117,17.699 -19.152,22.857 l -1.383,1.769 h -0.026 l 1.208,-1.877 c 3.545,-5.507 15.123,-23.63 15.286,-25.602 l 0.006,-0.071 c 0.067,-0.976 -0.273,-1.891 -0.959,-2.576 -0.277,-0.277 -0.61,-0.514 -0.962,-0.684 -1.004,-0.485 -2.516,-0.603 -3.75,0.522 l -0.052,0.048 c -1.443,1.352 -8.452,21.683 -10.565,27.882 l -0.804,2.359 h -0.162 l 0.597,-2.466 c 1.542,-6.365 6.534,-27.282 6.041,-29.202 l -0.018,-0.067 c -0.157,-0.577 -0.441,-1.074 -0.845,-1.478 -0.536,-0.536 -1.26,-0.881 -2.039,-0.972 -1.108,-0.129 -2.575,0.255 -3.373,1.725 l -0.033,0.061 c -0.373,0.71 -0.587,4.672 -0.706,9.567 h -250.66 c -0.12,-4.895 -0.333,-8.857 -0.706,-9.567 l -0.033,-0.061 c -0.798,-1.47 -2.265,-1.854 -3.373,-1.725 -0.779,0.091 -1.503,0.436 -2.039,0.972 -0.404,0.404 -0.688,0.901 -0.845,1.478 l -0.018,0.067 c -0.494,1.919 4.499,22.836 6.041,29.202 l 0.597,2.466 h -0.162 l -0.804,-2.359 c -2.113,-6.199 -9.122,-26.53 -10.565,-27.882 l -0.052,-0.048 c -1.235,-1.125 -2.746,-1.007 -3.75,-0.522 -0.352,0.17 -0.684,0.407 -0.962,0.684 -0.686,0.686 -1.026,1.601 -0.959,2.576 l 0.006,0.071 c 0.163,1.973 11.742,20.095 15.286,25.602 l 1.208,1.877 h -0.026 l -1.383,-1.769 c -4.035,-5.159 -17.34,-22.053 -19.152,-22.857 l -0.06,-0.026 c -1.537,-0.657 -2.926,-0.048 -3.714,0.74 -0.788,0.788 -1.397,2.177 -0.742,3.709 l 0.03,0.069 c 0.802,1.807 17.697,15.113 22.855,19.147 l 1.835,1.435 v 0.018 l -1.944,-1.251 c -5.507,-3.545 -23.63,-15.123 -25.6,-15.286 l -0.068,-0.005 c -0.981,-0.068 -1.896,0.273 -2.581,0.959 -0.277,0.277 -0.514,0.61 -0.684,0.962 -0.485,1.004 -0.604,2.516 0.52,3.748 l 0.05,0.054 c 1.352,1.443 21.683,8.452 27.882,10.565 l 2.426,0.827 v 0.156 l -2.534,-0.614 c -6.365,-1.542 -27.283,-6.534 -29.198,-6.042 l -0.068,0.018 c -0.58,0.158 -1.078,0.442 -1.482,0.846 -0.536,0.536 -0.881,1.26 -0.972,2.039 -0.129,1.108 0.255,2.575 1.72,3.37 l 0.065,0.035 c 1.751,0.919 23.255,0.87 29.805,0.833 l 2.662,0.007 v 146.015 l -2.907,0.008 c -6.549,-0.037 -28.054,-0.086 -29.805,0.833 l -0.065,0.035 c -1.466,0.796 -1.85,2.263 -1.721,3.371 0.091,0.779 0.436,1.503 0.972,2.039 0.404,0.404 0.901,0.688 1.482,0.846 l 0.068,0.018 c 1.915,0.493 22.832,-4.5 29.198,-6.042 l 2.778,-0.673 v 0.132 l -2.671,0.911 c -6.199,2.114 -26.53,9.122 -27.882,10.565 l -0.05,0.054 c -1.123,1.232 -1.005,2.744 -0.52,3.748 0.17,0.351 0.407,0.684 0.684,0.961 0.685,0.686 1.6,1.026 2.581,0.958 l 0.068,-0.005 c 1.97,-0.163 20.092,-11.742 25.6,-15.286 l 2.074,-1.334 -1.964,1.536 c -5.159,4.035 -22.053,17.34 -22.855,19.148 l -0.03,0.069 c -0.655,1.532 -0.046,2.921 0.743,3.709 0.788,0.788 2.177,1.397 3.714,0.74 l 0.06,-0.026 c 1.812,-0.804 15.117,-17.699 19.152,-22.858 l 1.383,-1.768 h 0.026 l -1.208,1.877 c -3.545,5.507 -15.123,23.63 -15.286,25.602 l -0.005,0.071 c -0.067,0.976 0.273,1.891 0.959,2.576 0.277,0.277 0.61,0.514 0.962,0.684 1.004,0.485 2.516,0.603 3.75,-0.522 l 0.052,-0.048 c 1.443,-1.352 8.452,-21.683 10.565,-27.882 l 0.804,-2.359 h 0.162 l -0.597,2.466 c -1.542,6.365 -6.534,27.282 -6.041,29.202 l 0.018,0.067 c 0.157,0.577 0.441,1.074 0.845,1.478 0.536,0.536 1.26,0.881 2.038,0.972 1.108,0.129 2.575,-0.255 3.373,-1.725 l 0.032,-0.061 c 0.373,-0.71 0.586,-4.672 0.706,-9.567 h 250.66 c 0.12,4.895 0.333,8.857 0.706,9.567 l 0.033,0.061 c 0.798,1.47 2.265,1.854 3.373,1.725 0.779,-0.091 1.503,-0.436 2.038,-0.972 0.404,-0.404 0.688,-0.901 0.845,-1.478 l 0.018,-0.067 c 0.493,-1.919 -4.499,-22.836 -6.041,-29.202 l -0.597,-2.466 h 0.162 l 0.804,2.359 c 2.113,6.199 9.122,26.53 10.565,27.882 l 0.052,0.048 c 1.234,1.125 2.746,1.007 3.75,0.522 0.352,-0.17 0.684,-0.407 0.962,-0.684 0.686,-0.686 1.026,-1.601 0.959,-2.576 l -0.006,-0.071 c -0.163,-1.973 -11.742,-20.095 -15.286,-25.602 l -1.208,-1.877 h 0.026 l 1.383,1.768 c 4.035,5.159 17.341,22.053 19.152,22.858 l 0.06,0.026 c 1.537,0.657 2.926,0.048 3.714,-0.74 0.788,-0.788 1.397,-2.177 0.743,-3.709 l -0.03,-0.069 c -0.802,-1.807 -17.696,-15.113 -22.855,-19.148 l -1.834,-1.435 v -0.018 l 1.944,1.251 c 5.507,3.545 23.63,15.123 25.6,15.286 l 0.068,0.005 c 0.981,0.068 1.896,-0.273 2.581,-0.958 0.278,-0.277 0.514,-0.61 0.684,-0.961 0.485,-1.004 0.604,-2.516 -0.519,-3.748 l -0.05,-0.054 c -1.352,-1.443 -21.683,-8.452 -27.882,-10.565 l -2.426,-0.827 v -0.156 l 2.533,0.614 c 6.365,1.542 27.282,6.534 29.198,6.042 l 0.067,-0.018 c 0.581,-0.158 1.078,-0.442 1.482,-0.846 0.536,-0.536 0.881,-1.26 0.972,-2.039 0.129,-1.108 -0.255,-2.575 -1.721,-3.371 z m -0.836,-152.961 0.06,0.016 c 0.387,0.105 0.717,0.293 0.982,0.558 0.354,0.354 0.592,0.857 0.653,1.379 0.087,0.745 -0.168,1.731 -1.141,2.259 l -0.055,0.029 c -0.956,0.457 -10.839,0.738 -24.636,0.722 13.428,-3.189 23.112,-5.188 24.137,-4.963 z m -3.817,-10.577 0.061,-0.005 c 0.832,-0.057 1.39,0.314 1.711,0.635 0.19,0.19 0.353,0.418 0.469,0.659 0.327,0.675 0.409,1.689 -0.338,2.509 l -0.042,0.045 c -0.754,0.746 -9.997,4.253 -23.036,8.764 11.64,-7.418 20.132,-12.484 21.175,-12.607 z m -6.981,-8.646 0.053,-0.023 c 1.022,-0.437 1.953,-0.026 2.484,0.505 0.53,0.53 0.942,1.461 0.508,2.478 l -0.026,0.059 c -0.465,0.951 -8.04,7.304 -18.871,15.853 8.553,-10.836 14.908,-18.414 15.852,-18.872 z m -9.469,-5.823 0.043,-0.039 c 0.822,-0.749 1.836,-0.666 2.511,-0.34 0.241,0.116 0.469,0.279 0.659,0.469 0.321,0.321 0.692,0.879 0.635,1.706 l -0.005,0.062 c -0.124,1.047 -5.19,9.54 -12.608,21.179 4.511,-13.039 8.019,-22.283 8.765,-23.037 z m -10.976,-2.454 0.027,-0.05 c 0.53,-0.977 1.516,-1.232 2.261,-1.145 0.523,0.061 1.026,0.299 1.379,0.652 0.265,0.265 0.452,0.595 0.557,0.979 l 0.015,0.058 c 0.227,1.03 -1.772,10.714 -4.962,24.143 -0.015,-13.799 0.266,-23.682 0.723,-24.637 z M 512.815,109.103 C 509.626,95.675 507.627,85.99 507.853,84.96 l 0.015,-0.058 c 0.104,-0.384 0.292,-0.714 0.557,-0.979 0.354,-0.354 0.857,-0.592 1.379,-0.652 0.745,-0.087 1.731,0.168 2.261,1.145 l 0.027,0.05 c 0.458,0.956 0.739,10.839 0.723,24.637 z m -15.541,-20.325 -0.005,-0.062 c -0.057,-0.827 0.314,-1.384 0.635,-1.706 0.19,-0.19 0.418,-0.353 0.659,-0.469 0.675,-0.326 1.69,-0.409 2.511,0.34 l 0.043,0.039 c 0.746,0.754 4.254,9.998 8.764,23.036 -7.418,-11.638 -12.484,-20.131 -12.607,-21.178 z m -8.645,6.984 -0.026,-0.059 c -0.434,-1.017 -0.023,-1.947 0.508,-2.478 0.53,-0.531 1.462,-0.942 2.484,-0.505 l 0.053,0.023 c 0.944,0.458 7.3,8.036 15.853,18.871 -10.832,-8.548 -18.408,-14.901 -18.872,-15.852 z m -5.823,9.471 -0.042,-0.045 c -0.747,-0.819 -0.665,-1.834 -0.338,-2.509 0.116,-0.241 0.278,-0.469 0.469,-0.659 0.321,-0.321 0.879,-0.692 1.711,-0.635 l 0.061,0.005 c 1.043,0.123 9.536,5.189 21.175,12.607 -13.039,-4.511 -22.282,-8.019 -23.036,-8.764 z m -2.455,10.975 -0.054,-0.029 c -0.973,-0.528 -1.228,-1.514 -1.141,-2.259 0.061,-0.523 0.299,-1.026 0.652,-1.379 0.265,-0.265 0.595,-0.452 0.982,-0.558 l 0.06,-0.016 c 1.025,-0.226 10.709,1.774 24.137,4.963 -13.797,0.017 -23.68,-0.264 -24.636,-0.722 z m 0.254,153.914 -0.06,-0.016 c -0.387,-0.105 -0.718,-0.293 -0.982,-0.557 -0.354,-0.354 -0.592,-0.857 -0.652,-1.38 -0.087,-0.745 0.168,-1.731 1.141,-2.259 l 0.054,-0.029 c 0.956,-0.457 10.839,-0.738 24.636,-0.722 -13.428,3.189 -23.112,5.189 -24.137,4.963 z m 3.817,10.578 -0.061,0.005 c -0.832,0.057 -1.39,-0.314 -1.711,-0.635 -0.19,-0.19 -0.353,-0.418 -0.469,-0.659 -0.327,-0.675 -0.409,-1.69 0.338,-2.509 l 0.042,-0.045 c 0.754,-0.746 9.997,-4.253 23.035,-8.764 -11.639,7.418 -20.131,12.483 -21.174,12.607 z m 6.98,8.646 -0.053,0.023 c -1.022,0.437 -1.953,0.026 -2.484,-0.505 -0.531,-0.531 -0.942,-1.461 -0.508,-2.478 l 0.026,-0.059 c 0.465,-0.951 8.041,-7.304 18.871,-15.853 -8.552,10.836 -14.907,18.414 -15.852,18.872 z m 9.47,5.822 -0.043,0.039 c -0.822,0.749 -1.836,0.667 -2.511,0.34 -0.241,-0.116 -0.469,-0.279 -0.659,-0.469 -0.321,-0.321 -0.692,-0.879 -0.635,-1.706 l 0.005,-0.061 c 0.124,-1.047 5.189,-9.54 12.608,-21.179 -4.511,13.039 -8.019,22.282 -8.765,23.036 z m 10.976,2.454 -0.027,0.051 c -0.53,0.977 -1.516,1.232 -2.261,1.145 -0.523,-0.061 -1.026,-0.299 -1.379,-0.653 -0.265,-0.265 -0.452,-0.595 -0.556,-0.978 l -0.015,-0.058 c -0.227,-1.03 1.772,-10.714 4.961,-24.143 0.015,13.798 -0.266,23.682 -0.723,24.636 z m 1.73,-10.732 c 0.135,-6.866 0.111,-14.96 0.091,-18.554 l -0.015,-2.595 H 764.09 l -0.015,2.595 c -0.02,3.594 -0.044,11.689 0.091,18.554 z m 1.247,-23.674 V 118.873 H 763.164 V 263.215 H 514.825 Z m 249.495,-149.462 0.015,2.595 H 513.899 l 0.015,-2.595 c 0.02,-3.594 0.044,-11.689 -0.091,-18.554 H 764.41 c -0.134,6.865 -0.11,14.96 -0.09,18.554 z m 0.854,159.232 c 3.189,13.428 5.188,23.113 4.962,24.143 l -0.016,0.058 c -0.104,0.383 -0.292,0.714 -0.556,0.978 -0.354,0.354 -0.857,0.592 -1.38,0.653 -0.745,0.087 -1.731,-0.168 -2.261,-1.145 l -0.027,-0.051 c -0.457,-0.954 -0.738,-10.838 -0.722,-24.636 z m 15.541,20.325 0.005,0.061 c 0.057,0.827 -0.314,1.385 -0.635,1.706 -0.19,0.19 -0.418,0.353 -0.659,0.469 -0.675,0.327 -1.689,0.409 -2.511,-0.34 l -0.043,-0.039 c -0.746,-0.754 -4.254,-9.998 -8.764,-23.036 7.418,11.64 12.484,20.133 12.607,21.179 z m 8.645,-6.983 0.026,0.059 c 0.434,1.017 0.023,1.947 -0.508,2.478 -0.531,0.53 -1.462,0.942 -2.484,0.505 l -0.053,-0.023 c -0.944,-0.458 -7.3,-8.036 -15.853,-18.871 10.831,8.548 18.407,14.901 18.872,15.852 z m 5.823,-9.471 0.042,0.045 c 0.747,0.819 0.664,1.834 0.338,2.509 -0.116,0.241 -0.278,0.469 -0.469,0.659 -0.321,0.321 -0.879,0.692 -1.711,0.635 l -0.061,-0.005 c -1.043,-0.123 -9.536,-5.189 -21.175,-12.607 13.039,4.51 22.282,8.018 23.036,8.764 z m 3.65,-8.688 c -0.061,0.523 -0.299,1.026 -0.652,1.38 -0.265,0.265 -0.595,0.452 -0.982,0.557 l -0.06,0.016 c -1.025,0.225 -10.709,-1.774 -24.137,-4.963 13.797,-0.016 23.68,0.265 24.636,0.722 l 0.055,0.029 c 0.972,0.528 1.227,1.514 1.14,2.259 z"
   id="path182" />

			<rect
   x="490.75299"
   y="117.992"
   fill="#ab9371"
   width="1.683"
   height="146.104"
   id="rect184" />

			<rect
   x="785.552"
   y="117.992"
   fill="#ab9371"
   width="1.683"
   height="146.104"
   id="rect186" />

		</g>
  </g>
</svg>
