<?xml version="1.0" encoding="UTF-8" standalone="no"?>
<!-- Created with Inkscape (http://www.inkscape.org/) -->

<svg
   width="743.55756mm"
   height="395.69977mm"
   viewBox="0 0 743.55756 395.69977"
   version="1.1"
   id="svg271"
   xmlns:inkscape="http://www.inkscape.org/namespaces/inkscape"
   xmlns:sodipodi="http://sodipodi.sourceforge.net/DTD/sodipodi-0.dtd"
   xmlns="http://www.w3.org/2000/svg"
   xmlns:svg="http://www.w3.org/2000/svg">
  <sodipodi:namedview
     id="namedview273"
     pagecolor="#505050"
     bordercolor="#ffffff"
     borderopacity="1"
     inkscape:showpageshadow="0"
     inkscape:pageopacity="0"
     inkscape:pagecheckerboard="1"
     inkscape:deskcolor="#505050"
     inkscape:document-units="mm"
     showgrid="false" />
  <defs
     id="defs268" />
  <g
     inkscape:label="Layer 1"
     inkscape:groupmode="layer"
     id="layer1"
     transform="translate(-58.556566,76.893118)">
    <path
       fill="#ab9371"
       d="m 421.16028,295.53148 5.71328,9.56528 3.46063,13.70989 3.46061,-13.70989 5.71327,-9.56528 L 802.11413,145.47695 583.24452,54.903557 612.36541,6.1536081 h -55.62569 l 17.64607,-42.8860911 h -54.30034 l 10.138,-40.160635 H 330.44717 l 10.13809,40.160635 H 286.28491 L 303.93098,6.1536081 H 248.30519 L 277.42618,54.903557 58.556566,145.47695 Z m 41.38737,-263.568592 4.39019,-16.548225 25.32441,10.479268 -4.19695,16.628063 z m -64.42233,0 -25.51766,10.559106 -4.19694,-16.628063 25.32207,-10.479268 z M 430.33653,27.275935 715.96846,145.47695 430.33653,263.67801 144.70217,145.47695 Z m 103.62373,34.240309 6.4565,-15.692031 28.57327,11.824084 -8.79656,14.724367 z m -10.45558,-4.32632 -24.56279,-10.164033 4.19696,-16.628083 26.8223,11.100067 z m -18.38929,-34.617479 2.35155,-9.310626 h 34.11409 l -8.58034,20.851163 z m -10.87892,-4.502513 -11.61989,-4.809479 h 12.83479 z M 469.39531,6.1536081 478.88907,-29.624263 h 27.38601 L 497.24381,6.1536081 Z M 381.78165,-29.624263 391.2754,6.1536081 h -27.84851 l -9.03127,-35.7778711 z m -3.72526,42.886082 -11.62214,4.809479 -1.21491,-4.809479 z m -22.50108,9.310626 -27.88537,11.539153 -8.58027,-20.851145 h 34.11402 z m 1.97647,7.825363 4.19693,16.628083 -24.56267,10.164033 -6.45648,-15.692049 z M 326.71045,61.516244 300.47724,72.372664 291.6806,57.648297 320.25161,45.824213 Z M 781.23061,145.47695 446.36729,284.05148 460.93923,259.65728 736.85198,145.47836 570.3085,76.558595 579.10505,61.83421 Z M 595.50169,13.261819 573.12713,50.717645 543.45403,38.437918 553.81291,13.260453 h 41.68878 z m -36.27693,-42.886082 -14.7215,35.7778711 h -35.24388 l 9.03127,-35.7778711 z M 344.25754,-69.784892 h 172.15788 l -8.34328,33.053782 H 352.60318 Z m -42.81159,40.160629 h 40.93401 l 9.03126,35.7778711 h -35.24376 z m -36.27703,42.886082 h 41.68654 l 10.35888,25.177483 -29.67312,12.279726 z m 25.19093,63.296776 -166.54348,68.919765 275.91502,114.17892 14.57202,24.3942 L 79.440101,145.47836 281.56564,61.83421 Z"
       id="path12"
       style="stroke-width:1.77968" />
  </g>
</svg>
