<?xml version="1.0" encoding="UTF-8" standalone="no"?>
<!-- Created with Inkscape (http://www.inkscape.org/) -->

<svg
   width="200.00005mm"
   height="249.99998mm"
   viewBox="0 0 200.00005 249.99998"
   version="1.1"
   id="svg2445"
   xmlns="http://www.w3.org/2000/svg"
   xmlns:svg="http://www.w3.org/2000/svg">
  <defs
     id="defs2442" />
  <g
     id="layer1"
     transform="translate(-43.807337,-9.6875224)">
    <path
       fill="#ab9371"
       d="m 217.66694,259.68652 25.7792,0.001 0.0318,-21.97741 -14.54111,-5.3e-4 0.29772,-206.037141 14.5411,5.88e-4 0.0317,-21.977399 -25.7792,-0.00105 -0.018,12.396272 -148.081352,-0.006 0.01788,-12.3962728 -25.778161,-0.00104 -0.03175,21.9773988 14.541105,5.89e-4 -0.297715,206.037125 -14.541107,-5.3e-4 -0.03175,21.97742 25.778171,0.001 0.01788,-12.39628 148.081329,0.006 z M 46.733468,29.454061 l 0.02537,-17.555474 20.591493,8.33e-4 -0.01474,10.18531 -8.644756,-3.57e-4 -0.01065,7.370165 z m 14.540047,5.92e-4 0.0074,-5.1592 6.051447,2.49e-4 -0.0074,5.159202 z m 8.644762,3.57e-4 0.0074,-5.159203 6.450972,2.67e-4 -0.0074,5.159203 z m 8.180534,3.3e-4 0.0074,-5.1592 131.720259,0.0053 -0.007,5.159201 z m 133.449849,0.0054 0.007,-5.159201 6.45095,2.66e-4 -0.007,5.159201 z m 9.0443,3.61e-4 0.007,-5.159201 6.05144,2.5e-4 -0.007,5.159201 z m 8.64474,3.57e-4 0.0107,-7.370165 -8.64474,-3.56e-4 0.0148,-10.185311 20.59252,8.39e-4 -0.0254,17.555475 z m -167.981666,12.08735 0.01429,-9.883218 6.051448,2.5e-4 -0.01429,9.883218 z m 8.644763,3.56e-4 0.01429,-9.883218 6.450974,2.67e-4 -0.01428,9.883217 z m 8.180535,3.32e-4 0.01429,-9.883218 131.720278,0.0053 -0.0143,9.883218 z m 133.449858,0.0054 0.0143,-9.883217 6.45094,2.66e-4 -0.0143,9.883218 z m 9.04429,3.63e-4 0.0143,-9.883218 6.0514,2.5e-4 -0.0143,9.883219 z M 60.98901,226.34496 61.253911,43.022497 l 6.051447,2.51e-4 -0.2649,183.322472 z m 8.644762,3.9e-4 0.264901,-183.32247 6.450972,2.65e-4 -0.264902,183.322465 z m 8.180549,3.3e-4 0.264887,-183.32247 131.720272,0.0053 -0.26489,183.32246 z m 133.449839,0.005 0.26489,-183.322469 6.45096,2.65e-4 -0.2649,183.322464 z m 9.0443,3.4e-4 0.26489,-183.322483 6.05143,2.51e-4 -0.26489,183.322462 z m -159.335859,11.35128 0.01429,-9.88321 6.051449,2.6e-4 -0.01428,9.88321 z m 8.644762,3.8e-4 0.01429,-9.8832 6.450971,2.2e-4 -0.01428,9.88322 z m 8.180535,3.3e-4 0.01428,-9.88321 131.720282,0.005 -0.0143,9.88321 z m 133.449862,0.005 0.0144,-9.88321 6.45096,2.2e-4 -0.0143,9.88321 z m 9.04429,3.4e-4 0.0143,-9.88322 6.05142,2.6e-4 -0.0143,9.8832 z m 6.04824,2.21121 -0.007,5.1592 -6.05142,-2.6e-4 0.007,-5.15919 z m -8.64477,-3.8e-4 -0.007,5.15919 -6.45095,-2.2e-4 0.007,-5.15919 z m -8.18054,-3.3e-4 -0.007,5.15919 -131.721321,-0.005 0.0074,-5.15919 z m -133.449838,-0.005 -0.0074,5.15919 -6.450971,-2.2e-4 0.0074,-5.1592 z m -9.044285,-3.4e-4 -0.0074,5.1592 -6.051451,-2.6e-4 0.0074,-5.1592 z m -0.02529,17.55547 -20.591495,-9e-4 0.02536,-17.55545 11.946734,4e-4 -0.01065,7.37017 8.644761,3.9e-4 z m 161.938113,-17.54889 11.94777,4e-4 -0.0253,17.55547 -20.59254,-8.9e-4 0.0148,-10.18531 8.64477,3.9e-4 z"
       id="path160"
       style="stroke-width:0.948324" />
  </g>
</svg>
